# xmcd CD database file
#
# Track frame offsets:
#	150
#	11382
#	22127
#	31081
#	38450
#	62367
#	74466
#	82855
#	92153
#	102619
#	115391
#	124585
#	132937
#	139827
#	154203
#	166138
#	180641
#	188944
#	198179
#	205233
#	216624
#
# Disc length: 3020 seconds
#
# Revision: 3
# Processed by: cddbd v1.5.2PL0 Copyright (c) Steve Scherf et al.
# Submitted via: CDex 1.70beta2
#
DISCID=230bca15
DTITLE=Casa Musica - The Best Of Quickstep Music
DYEAR=2000
DGENRE=Acid
TTITLE0=Geoff Love and His Orchestra - It Don't Mean A Thing
TTITLE1=Brian Smith and His Festival Orchestra - That's Plenty
TTITLE2=Vic Damone - Is You Is, Or Is You Ain't (Ma' Baby)
TTITLE3=Joe Loss - Steppin' Out Wiht My Baby . Let Yourself Go . Top Hat
TTITLE4=Alma Cogan - Got'n Idea
TTITLE5=Gordon Mcrae - One More Time
TTITLE6=Brian Smith  and His Orchestra - 42nd Street
TTITLE7=Brian Smith and His Festival Orchestra - I'll Never Say Never Again
TTITLE8=Geoff Love and His Orchestra - 42nd Street
TTITLE9=June Christy - Skyliner
TTITLE10=Alma Cogan - Stairway Of Love
TTITLE11=Joe Loss - Happy Feet
TTITLE12=Bobby Darin - I'm Sitting On Top Of The World
TTITLE13=Billy May Ft Willie Smith - Rhythm Is Our Business
TTITLE14=Dinah Shore - Dear Hearts And Gentle People
TTITLE15=Geoff Love and His Orchestra - Yankee Doodle Boys
TTITLE16=Peggy Lee - So What's New
TTITLE17=Alma Cogan - Summer Love
TTITLE18=Clive Peterson - When I See An Elephant Fly
TTITLE19=Alma Cogan - Go On By
TTITLE20=Nat King Cole - Those Lazy-Hazy-Crazy Days
EXTD=YEAR: 2000
EXTT0=
EXTT1=
EXTT2=
EXTT3=
EXTT4=
EXTT5=
EXTT6=
EXTT7=
EXTT8=
EXTT9=
EXTT10=
EXTT11=
EXTT12=
EXTT13=
EXTT14=
EXTT15=
EXTT16=
EXTT17=
EXTT18=
EXTT19=
EXTT20=
PLAYORDER=
